<svg xmlns="http://www.w3.org/2000/svg" xml:space="preserve" style="enable-background:new 0 0 34 34" viewBox="0 0 34 34"><path d="M6.8 27.8c-.6 0-1.2-.1-1.8-.3-2.3-.8-3.9-2.9-3.9-5.4 0-1.6.7-3.2 1.9-4.3.3-.3.7-.5 1-.7l.4-1.3c.9-3.3 4-5.6 7.4-5.6.3 0 .7 0 1.1.1.3 0 .6.1.9.2l.2-.3c1.4-2.5 4-4 6.8-4 4.3 0 7.8 3.5 7.8 7.8v.8c.3.1.7.3 1 .5 2.1 1.2 3.4 3.4 3.4 5.8 0 3.1-2.1 5.8-5.2 6.5-.5.1-1 .2-1.5.2H6.8z" style="fill:#fff"/><path d="M20.8 5.1c-3.1 0-5.9 1.6-7.5 4.1h-.2c-.5-.1-.9-.1-1.3-.1-3.9 0-7.4 2.6-8.5 6.4l-.3.9c-.3.2-.5.4-.8.6C.9 18.3 0 20.1 0 22.1c0 2.9 1.9 5.5 4.7 6.5.7.2 1.4.3 2.1.3h19.4c.6 0 1.2-.1 1.8-.2 3.6-.8 6.1-4 6.1-7.6 0-2.8-1.5-5.4-3.9-6.8-.1-.1-.2-.1-.4-.2V14c-.1-4.9-4.1-8.9-9-8.9zm0 2.3c3.7 0 6.6 3 6.6 6.6v.5c-1.5.1-2.9.7-4 1.7.8-.5 1.8-.7 2.8-.7.4 0 .7 0 1.1.1.6.1 1.2.3 1.7.6 1.7 1 2.8 2.8 2.8 4.8 0 2.6-1.8 4.9-4.3 5.4-.4.1-.8.1-1.3.1H6.8c-.5 0-1-.1-1.4-.2-1.8-.6-3.1-2.3-3.1-4.3 0-1.4.6-2.6 1.6-3.4.4-.4.9-.7 1.5-.9.5-.2 1-.3 1.5-.3 1.5 0 2.8.7 3.6 1.8-1-1.8-2.8-3-4.9-3.2.8-2.7 3.3-4.7 6.3-4.7.3 0 .6 0 .9.1.6.1 1.2.3 1.7.5 2 .9 3.5 2.8 3.8 5 0-2.6-1.3-4.8-3.3-6.1 1.1-2 3.3-3.4 5.8-3.4" style="fill:#bdd5f3"/></svg>