<svg xmlns="http://www.w3.org/2000/svg" xml:space="preserve" id="Capa_1" x="0" y="0" style="enable-background:new 0 0 34 34" version="1.1" viewBox="0 0 34 34"><style>.st1{fill:#8cc63e}.st2{fill:#64892f}</style><path d="M34 16.8c.5 8.7-7.4 16.1-16.9 16.1-9.5 0-17.9-7.8-17-16.5 1.3-12.2 10.4-13 17-13 4 0 15.9-3.5 16.9 13.4z" style="fill:#ef4d3c"/><path d="M5.1 14.2c3.5-5.5 9.5-3.9 11.1-5.9 0 3.9 2.8 2 4.3 3.8 1.8 2.3 2.5 6.3 4.6 7.1-2.1-4.5 1.3-4.3-3.5-10.3 2.5 1.6 3.8 0 7.3 1.4-3-4.8-7.7-3.4-7.7-3.4s3-2.7 5.4-1.3c-2.6-3.9-10.1 1-10.1 1s-3.1-5.4-9.8.3c3.9-1.6 8.2 0 8.2 0s-7-1.8-9.8 7.3z" class="st1"/><path d="M5.1 14.2s4.1-7.6 11.3-7c-6.3-2.9-11.3 3.2-11.3 7z" class="st2"/><path d="M6.7 6.8s5.2-3.9 9.8 0c-1.3-4.8-8.3-2.5-9.8 0zM17.7 7.3c6.9 3.2 4.6 6.8 7.4 11.9-1.9-4.2 2.8-11.9-7.4-11.9z" class="st2"/><path d="M15 6.8s1.6-2.4 2.2-5.3c.1-.4 1.7-.4 1.7 0-.5 3.8 1 5.9 1 5.9s-1.2.4-2.7.4c-1.5.1-2.2-1-2.2-1z" class="st2"/><path d="M18 1.1c.5 0 .8.2.8.4s-.4.4-.8.4c-.5 0-.8-.2-.8-.4s.3-.4.8-.4z" class="st1"/></svg>